<?xml version="1.0" encoding="UTF-8" standalone="no"?>
<!DOCTYPE svg PUBLIC "-//W3C//DTD SVG 1.1//EN"
 "http://www.w3.org/Graphics/SVG/1.1/DTD/svg11.dtd">
<!-- Generated by graphviz version 2.43.0 (0)
 -->
<!-- Title: ARV Pages: 1 -->
<svg width="1663pt" height="3182pt"
 viewBox="0.00 0.00 1663.00 3182.00" xmlns="http://www.w3.org/2000/svg" xmlns:xlink="http://www.w3.org/1999/xlink">
<g id="graph0" class="graph" transform="scale(1 1) rotate(0) translate(36 3146)">
<title>ARV</title>
<polygon fill="white" stroke="transparent" points="-36,36 -36,-3146 1627,-3146 1627,36 -36,36"/>
<!-- 8 -->
<g id="node1" class="node">
<title>8</title>
<polygon fill="none" stroke="black" points="141,-1661 0,-1661 0,-1625 141,-1625 141,-1661"/>
<text text-anchor="middle" x="70.5" y="-1639.3" font-family="Times,serif" font-size="14.00">Acesso Variavel n</text>
</g>
<!-- 7 -->
<g id="node2" class="node">
<title>7</title>
<polygon fill="none" stroke="black" points="116,-1843 25,-1843 25,-1807 116,-1807 116,-1843"/>
<text text-anchor="middle" x="70.5" y="-1821.3" font-family="Times,serif" font-size="14.00">Expressão</text>
</g>
<!-- 7&#45;&gt;8 -->
<g id="edge1" class="edge">
<title>7&#45;&gt;8</title>
<path fill="none" stroke="black" d="M70.5,-1806.74C70.5,-1775.43 70.5,-1709.02 70.5,-1671.43"/>
<polygon fill="black" stroke="black" points="74,-1671.21 70.5,-1661.21 67,-1671.21 74,-1671.21"/>
</g>
<!-- 9 -->
<g id="node3" class="node">
<title>9</title>
<polygon fill="none" stroke="black" points="243,-1844 152,-1844 152,-1806 243,-1806 243,-1844"/>
<text text-anchor="middle" x="197.5" y="-1828.8" font-family="Times,serif" font-size="14.00">Expressão</text>
<text text-anchor="middle" x="197.5" y="-1813.8" font-family="Times,serif" font-size="14.00">0</text>
</g>
<!-- 6 -->
<g id="node4" class="node">
<title>6</title>
<polygon fill="none" stroke="black" points="249,-2024 136,-2024 136,-1988 249,-1988 249,-2024"/>
<text text-anchor="middle" x="192.5" y="-2002.3" font-family="Times,serif" font-size="14.00">LESS_EQUAL</text>
</g>
<!-- 6&#45;&gt;7 -->
<g id="edge2" class="edge">
<title>6&#45;&gt;7</title>
<path fill="none" stroke="black" d="M180.8,-1987.84C159.21,-1956.16 113.02,-1888.38 87.8,-1851.38"/>
<polygon fill="black" stroke="black" points="90.69,-1849.4 82.16,-1843.11 84.9,-1853.35 90.69,-1849.4"/>
</g>
<!-- 6&#45;&gt;9 -->
<g id="edge3" class="edge">
<title>6&#45;&gt;9</title>
<path fill="none" stroke="black" d="M192.98,-1987.84C193.84,-1957.02 195.66,-1892.01 196.71,-1854.44"/>
<polygon fill="black" stroke="black" points="200.21,-1854.27 196.99,-1844.17 193.21,-1854.07 200.21,-1854.27"/>
</g>
<!-- 5 -->
<g id="node5" class="node">
<title>5</title>
<polygon fill="none" stroke="black" points="238,-2205 147,-2205 147,-2169 238,-2169 238,-2205"/>
<text text-anchor="middle" x="192.5" y="-2183.3" font-family="Times,serif" font-size="14.00">Expressão</text>
</g>
<!-- 5&#45;&gt;6 -->
<g id="edge4" class="edge">
<title>5&#45;&gt;6</title>
<path fill="none" stroke="black" d="M192.5,-2168.84C192.5,-2137.7 192.5,-2071.66 192.5,-2034.28"/>
<polygon fill="black" stroke="black" points="196,-2034.11 192.5,-2024.11 189,-2034.11 196,-2034.11"/>
</g>
<!-- 4 -->
<g id="node6" class="node">
<title>4</title>
<polygon fill="none" stroke="black" points="260.5,-2386 124.5,-2386 124.5,-2350 260.5,-2350 260.5,-2386"/>
<text text-anchor="middle" x="192.5" y="-2364.3" font-family="Times,serif" font-size="14.00">Condicao Parada</text>
</g>
<!-- 4&#45;&gt;5 -->
<g id="edge5" class="edge">
<title>4&#45;&gt;5</title>
<path fill="none" stroke="black" d="M192.5,-2349.84C192.5,-2318.7 192.5,-2252.66 192.5,-2215.28"/>
<polygon fill="black" stroke="black" points="196,-2215.11 192.5,-2205.11 189,-2215.11 196,-2215.11"/>
</g>
<!-- 14 -->
<g id="node7" class="node">
<title>14</title>
<polygon fill="none" stroke="black" points="361,-1662 270,-1662 270,-1624 361,-1624 361,-1662"/>
<text text-anchor="middle" x="315.5" y="-1646.8" font-family="Times,serif" font-size="14.00">Expressão</text>
<text text-anchor="middle" x="315.5" y="-1631.8" font-family="Times,serif" font-size="14.00">0</text>
</g>
<!-- 13 -->
<g id="node8" class="node">
<title>13</title>
<polygon fill="none" stroke="black" points="420.5,-1843 284.5,-1843 284.5,-1807 420.5,-1807 420.5,-1843"/>
<text text-anchor="middle" x="352.5" y="-1821.3" font-family="Times,serif" font-size="14.00">Condicao Parada</text>
</g>
<!-- 13&#45;&gt;14 -->
<g id="edge6" class="edge">
<title>13&#45;&gt;14</title>
<path fill="none" stroke="black" d="M348.95,-1806.74C342.54,-1775.53 328.96,-1709.47 321.22,-1671.82"/>
<polygon fill="black" stroke="black" points="324.64,-1671.1 319.2,-1662.01 317.79,-1672.51 324.64,-1671.1"/>
</g>
<!-- 12 -->
<g id="node9" class="node">
<title>12</title>
<polygon fill="none" stroke="black" points="426,-2024 289,-2024 289,-1988 426,-1988 426,-2024"/>
<text text-anchor="middle" x="357.5" y="-2002.3" font-family="Times,serif" font-size="14.00">Comando Return</text>
</g>
<!-- 12&#45;&gt;13 -->
<g id="edge7" class="edge">
<title>12&#45;&gt;13</title>
<path fill="none" stroke="black" d="M357.02,-1987.84C356.15,-1956.7 354.31,-1890.66 353.26,-1853.28"/>
<polygon fill="black" stroke="black" points="356.76,-1853.01 352.98,-1843.11 349.76,-1853.21 356.76,-1853.01"/>
</g>
<!-- 11 -->
<g id="node10" class="node">
<title>11</title>
<polygon fill="none" stroke="black" points="401,-2205 318,-2205 318,-2169 401,-2169 401,-2205"/>
<text text-anchor="middle" x="359.5" y="-2183.3" font-family="Times,serif" font-size="14.00">Comando</text>
</g>
<!-- 11&#45;&gt;12 -->
<g id="edge8" class="edge">
<title>11&#45;&gt;12</title>
<path fill="none" stroke="black" d="M359.31,-2168.84C358.96,-2137.7 358.22,-2071.66 357.8,-2034.28"/>
<polygon fill="black" stroke="black" points="361.3,-2034.07 357.69,-2024.11 354.3,-2034.15 361.3,-2034.07"/>
</g>
<!-- 10 -->
<g id="node11" class="node">
<title>10</title>
<polygon fill="none" stroke="black" points="428,-2386 297,-2386 297,-2350 428,-2350 428,-2386"/>
<text text-anchor="middle" x="362.5" y="-2364.3" font-family="Times,serif" font-size="14.00">Lista Comandos</text>
</g>
<!-- 10&#45;&gt;11 -->
<g id="edge9" class="edge">
<title>10&#45;&gt;11</title>
<path fill="none" stroke="black" d="M362.21,-2349.84C361.69,-2318.7 360.58,-2252.66 359.96,-2215.28"/>
<polygon fill="black" stroke="black" points="363.45,-2215.05 359.79,-2205.11 356.45,-2215.17 363.45,-2215.05"/>
</g>
<!-- 3 -->
<g id="node12" class="node">
<title>3</title>
<polygon fill="none" stroke="black" points="411.5,-2567 313.5,-2567 313.5,-2531 411.5,-2531 411.5,-2567"/>
<text text-anchor="middle" x="362.5" y="-2545.3" font-family="Times,serif" font-size="14.00">Comando If</text>
</g>
<!-- 3&#45;&gt;4 -->
<g id="edge10" class="edge">
<title>3&#45;&gt;4</title>
<path fill="none" stroke="black" d="M346.2,-2530.84C315.86,-2498.89 250.66,-2430.24 215.72,-2393.45"/>
<polygon fill="black" stroke="black" points="218.18,-2390.95 208.75,-2386.11 213.1,-2395.77 218.18,-2390.95"/>
</g>
<!-- 3&#45;&gt;10 -->
<g id="edge11" class="edge">
<title>3&#45;&gt;10</title>
<path fill="none" stroke="black" d="M362.5,-2530.84C362.5,-2499.7 362.5,-2433.66 362.5,-2396.28"/>
<polygon fill="black" stroke="black" points="366,-2396.11 362.5,-2386.11 359,-2396.11 366,-2396.11"/>
</g>
<!-- 2 -->
<g id="node13" class="node">
<title>2</title>
<polygon fill="none" stroke="black" points="418,-2748 335,-2748 335,-2712 418,-2712 418,-2748"/>
<text text-anchor="middle" x="376.5" y="-2726.3" font-family="Times,serif" font-size="14.00">Comando</text>
</g>
<!-- 2&#45;&gt;3 -->
<g id="edge12" class="edge">
<title>2&#45;&gt;3</title>
<path fill="none" stroke="black" d="M375.16,-2711.84C372.72,-2680.7 367.56,-2614.66 364.63,-2577.28"/>
<polygon fill="black" stroke="black" points="368.11,-2576.81 363.84,-2567.11 361.13,-2577.35 368.11,-2576.81"/>
</g>
<!-- 22 -->
<g id="node14" class="node">
<title>22</title>
<polygon fill="none" stroke="black" points="513,-1479 372,-1479 372,-1443 513,-1443 513,-1479"/>
<text text-anchor="middle" x="442.5" y="-1457.3" font-family="Times,serif" font-size="14.00">Acesso Variavel n</text>
</g>
<!-- 21 -->
<g id="node15" class="node">
<title>21</title>
<polygon fill="none" stroke="black" points="488,-1661 397,-1661 397,-1625 488,-1625 488,-1661"/>
<text text-anchor="middle" x="442.5" y="-1639.3" font-family="Times,serif" font-size="14.00">Expressão</text>
</g>
<!-- 21&#45;&gt;22 -->
<g id="edge13" class="edge">
<title>21&#45;&gt;22</title>
<path fill="none" stroke="black" d="M442.5,-1624.74C442.5,-1593.43 442.5,-1527.02 442.5,-1489.43"/>
<polygon fill="black" stroke="black" points="446,-1489.21 442.5,-1479.21 439,-1489.21 446,-1489.21"/>
</g>
<!-- 23 -->
<g id="node16" class="node">
<title>23</title>
<polygon fill="none" stroke="black" points="615,-1662 524,-1662 524,-1624 615,-1624 615,-1662"/>
<text text-anchor="middle" x="569.5" y="-1646.8" font-family="Times,serif" font-size="14.00">Expressão</text>
<text text-anchor="middle" x="569.5" y="-1631.8" font-family="Times,serif" font-size="14.00">1</text>
</g>
<!-- 20 -->
<g id="node17" class="node">
<title>20</title>
<polygon fill="none" stroke="black" points="583.5,-1843 515.5,-1843 515.5,-1807 583.5,-1807 583.5,-1843"/>
<text text-anchor="middle" x="549.5" y="-1821.3" font-family="Times,serif" font-size="14.00">EQUAL</text>
</g>
<!-- 20&#45;&gt;21 -->
<g id="edge14" class="edge">
<title>20&#45;&gt;21</title>
<path fill="none" stroke="black" d="M539.24,-1806.74C520.39,-1775.02 480.13,-1707.31 457.95,-1670"/>
<polygon fill="black" stroke="black" points="460.85,-1668.01 452.73,-1661.21 454.83,-1671.59 460.85,-1668.01"/>
</g>
<!-- 20&#45;&gt;23 -->
<g id="edge15" class="edge">
<title>20&#45;&gt;23</title>
<path fill="none" stroke="black" d="M551.42,-1806.74C554.87,-1775.67 562.16,-1710.04 566.36,-1672.3"/>
<polygon fill="black" stroke="black" points="569.87,-1672.33 567.5,-1662.01 562.92,-1671.56 569.87,-1672.33"/>
</g>
<!-- 19 -->
<g id="node18" class="node">
<title>19</title>
<polygon fill="none" stroke="black" points="595,-2024 504,-2024 504,-1988 595,-1988 595,-2024"/>
<text text-anchor="middle" x="549.5" y="-2002.3" font-family="Times,serif" font-size="14.00">Expressão</text>
</g>
<!-- 19&#45;&gt;20 -->
<g id="edge16" class="edge">
<title>19&#45;&gt;20</title>
<path fill="none" stroke="black" d="M549.5,-1987.84C549.5,-1956.7 549.5,-1890.66 549.5,-1853.28"/>
<polygon fill="black" stroke="black" points="553,-1853.11 549.5,-1843.11 546,-1853.11 553,-1853.11"/>
</g>
<!-- 18 -->
<g id="node19" class="node">
<title>18</title>
<polygon fill="none" stroke="black" points="617.5,-2205 481.5,-2205 481.5,-2169 617.5,-2169 617.5,-2205"/>
<text text-anchor="middle" x="549.5" y="-2183.3" font-family="Times,serif" font-size="14.00">Condicao Parada</text>
</g>
<!-- 18&#45;&gt;19 -->
<g id="edge17" class="edge">
<title>18&#45;&gt;19</title>
<path fill="none" stroke="black" d="M549.5,-2168.84C549.5,-2137.7 549.5,-2071.66 549.5,-2034.28"/>
<polygon fill="black" stroke="black" points="553,-2034.11 549.5,-2024.11 546,-2034.11 553,-2034.11"/>
</g>
<!-- 28 -->
<g id="node20" class="node">
<title>28</title>
<polygon fill="none" stroke="black" points="765,-1480 674,-1480 674,-1442 765,-1442 765,-1480"/>
<text text-anchor="middle" x="719.5" y="-1464.8" font-family="Times,serif" font-size="14.00">Expressão</text>
<text text-anchor="middle" x="719.5" y="-1449.8" font-family="Times,serif" font-size="14.00">1</text>
</g>
<!-- 27 -->
<g id="node21" class="node">
<title>27</title>
<polygon fill="none" stroke="black" points="787.5,-1661 651.5,-1661 651.5,-1625 787.5,-1625 787.5,-1661"/>
<text text-anchor="middle" x="719.5" y="-1639.3" font-family="Times,serif" font-size="14.00">Condicao Parada</text>
</g>
<!-- 27&#45;&gt;28 -->
<g id="edge18" class="edge">
<title>27&#45;&gt;28</title>
<path fill="none" stroke="black" d="M719.5,-1624.74C719.5,-1593.67 719.5,-1528.04 719.5,-1490.3"/>
<polygon fill="black" stroke="black" points="723,-1490.01 719.5,-1480.01 716,-1490.01 723,-1490.01"/>
</g>
<!-- 26 -->
<g id="node22" class="node">
<title>26</title>
<polygon fill="none" stroke="black" points="788,-1843 651,-1843 651,-1807 788,-1807 788,-1843"/>
<text text-anchor="middle" x="719.5" y="-1821.3" font-family="Times,serif" font-size="14.00">Comando Return</text>
</g>
<!-- 26&#45;&gt;27 -->
<g id="edge19" class="edge">
<title>26&#45;&gt;27</title>
<path fill="none" stroke="black" d="M719.5,-1806.74C719.5,-1775.43 719.5,-1709.02 719.5,-1671.43"/>
<polygon fill="black" stroke="black" points="723,-1671.21 719.5,-1661.21 716,-1671.21 723,-1671.21"/>
</g>
<!-- 25 -->
<g id="node23" class="node">
<title>25</title>
<polygon fill="none" stroke="black" points="761,-2024 678,-2024 678,-1988 761,-1988 761,-2024"/>
<text text-anchor="middle" x="719.5" y="-2002.3" font-family="Times,serif" font-size="14.00">Comando</text>
</g>
<!-- 25&#45;&gt;26 -->
<g id="edge20" class="edge">
<title>25&#45;&gt;26</title>
<path fill="none" stroke="black" d="M719.5,-1987.84C719.5,-1956.7 719.5,-1890.66 719.5,-1853.28"/>
<polygon fill="black" stroke="black" points="723,-1853.11 719.5,-1843.11 716,-1853.11 723,-1853.11"/>
</g>
<!-- 24 -->
<g id="node24" class="node">
<title>24</title>
<polygon fill="none" stroke="black" points="785,-2205 654,-2205 654,-2169 785,-2169 785,-2205"/>
<text text-anchor="middle" x="719.5" y="-2183.3" font-family="Times,serif" font-size="14.00">Lista Comandos</text>
</g>
<!-- 24&#45;&gt;25 -->
<g id="edge21" class="edge">
<title>24&#45;&gt;25</title>
<path fill="none" stroke="black" d="M719.5,-2168.84C719.5,-2137.7 719.5,-2071.66 719.5,-2034.28"/>
<polygon fill="black" stroke="black" points="723,-2034.11 719.5,-2024.11 716,-2034.11 723,-2034.11"/>
</g>
<!-- 36 -->
<g id="node25" class="node">
<title>36</title>
<polygon fill="none" stroke="black" points="935,-938 794,-938 794,-902 935,-902 935,-938"/>
<text text-anchor="middle" x="864.5" y="-916.3" font-family="Times,serif" font-size="14.00">Acesso Variavel n</text>
</g>
<!-- 35 -->
<g id="node26" class="node">
<title>35</title>
<polygon fill="none" stroke="black" points="929,-1118 838,-1118 838,-1082 929,-1082 929,-1118"/>
<text text-anchor="middle" x="883.5" y="-1096.3" font-family="Times,serif" font-size="14.00">Expressão</text>
</g>
<!-- 35&#45;&gt;36 -->
<g id="edge22" class="edge">
<title>35&#45;&gt;36</title>
<path fill="none" stroke="black" d="M881.68,-1081.93C878.37,-1050.97 871.36,-985.3 867.4,-948.13"/>
<polygon fill="black" stroke="black" points="870.86,-947.59 866.32,-938.02 863.9,-948.33 870.86,-947.59"/>
</g>
<!-- 43 -->
<g id="node27" class="node">
<title>43</title>
<polygon fill="none" stroke="black" points="1077,-36 936,-36 936,0 1077,0 1077,-36"/>
<text text-anchor="middle" x="1006.5" y="-14.3" font-family="Times,serif" font-size="14.00">Acesso Variavel n</text>
</g>
<!-- 42 -->
<g id="node28" class="node">
<title>42</title>
<polygon fill="none" stroke="black" points="1052,-217 961,-217 961,-181 1052,-181 1052,-217"/>
<text text-anchor="middle" x="1006.5" y="-195.3" font-family="Times,serif" font-size="14.00">Expressão</text>
</g>
<!-- 42&#45;&gt;43 -->
<g id="edge23" class="edge">
<title>42&#45;&gt;43</title>
<path fill="none" stroke="black" d="M1006.5,-180.84C1006.5,-149.7 1006.5,-83.66 1006.5,-46.28"/>
<polygon fill="black" stroke="black" points="1010,-46.11 1006.5,-36.11 1003,-46.11 1010,-46.11"/>
</g>
<!-- 44 -->
<g id="node29" class="node">
<title>44</title>
<polygon fill="none" stroke="black" points="1179,-218 1088,-218 1088,-180 1179,-180 1179,-218"/>
<text text-anchor="middle" x="1133.5" y="-202.8" font-family="Times,serif" font-size="14.00">Expressão</text>
<text text-anchor="middle" x="1133.5" y="-187.8" font-family="Times,serif" font-size="14.00">1</text>
</g>
<!-- 41 -->
<g id="node30" class="node">
<title>41</title>
<polygon fill="none" stroke="black" points="1104.5,-398 1034.5,-398 1034.5,-362 1104.5,-362 1104.5,-398"/>
<text text-anchor="middle" x="1069.5" y="-376.3" font-family="Times,serif" font-size="14.00">MINUS</text>
</g>
<!-- 41&#45;&gt;42 -->
<g id="edge24" class="edge">
<title>41&#45;&gt;42</title>
<path fill="none" stroke="black" d="M1063.46,-361.84C1052.45,-330.56 1029.06,-264.09 1015.93,-226.8"/>
<polygon fill="black" stroke="black" points="1019.14,-225.38 1012.52,-217.11 1012.54,-227.71 1019.14,-225.38"/>
</g>
<!-- 41&#45;&gt;44 -->
<g id="edge25" class="edge">
<title>41&#45;&gt;44</title>
<path fill="none" stroke="black" d="M1075.64,-361.84C1086.7,-330.88 1110.1,-265.45 1123.5,-227.96"/>
<polygon fill="black" stroke="black" points="1126.93,-228.77 1127,-218.17 1120.34,-226.41 1126.93,-228.77"/>
</g>
<!-- 40 -->
<g id="node31" class="node">
<title>40</title>
<polygon fill="none" stroke="black" points="1115,-578 1024,-578 1024,-542 1115,-542 1115,-578"/>
<text text-anchor="middle" x="1069.5" y="-556.3" font-family="Times,serif" font-size="14.00">Expressão</text>
</g>
<!-- 40&#45;&gt;41 -->
<g id="edge26" class="edge">
<title>40&#45;&gt;41</title>
<path fill="none" stroke="black" d="M1069.5,-541.93C1069.5,-510.97 1069.5,-445.3 1069.5,-408.13"/>
<polygon fill="black" stroke="black" points="1073,-408.02 1069.5,-398.02 1066,-408.02 1073,-408.02"/>
</g>
<!-- 39 -->
<g id="node32" class="node">
<title>39</title>
<polygon fill="none" stroke="black" points="1138,-758 1001,-758 1001,-722 1138,-722 1138,-758"/>
<text text-anchor="middle" x="1069.5" y="-736.3" font-family="Times,serif" font-size="14.00">Loop Expressoes</text>
</g>
<!-- 39&#45;&gt;40 -->
<g id="edge27" class="edge">
<title>39&#45;&gt;40</title>
<path fill="none" stroke="black" d="M1069.5,-721.93C1069.5,-690.97 1069.5,-625.3 1069.5,-588.13"/>
<polygon fill="black" stroke="black" points="1073,-588.02 1069.5,-578.02 1066,-588.02 1073,-588.02"/>
</g>
<!-- 38 -->
<g id="node33" class="node">
<title>38</title>
<polygon fill="none" stroke="black" points="1167.5,-938 971.5,-938 971.5,-902 1167.5,-902 1167.5,-938"/>
<text text-anchor="middle" x="1069.5" y="-916.3" font-family="Times,serif" font-size="14.00">Chamada Funcao fatorial</text>
</g>
<!-- 38&#45;&gt;39 -->
<g id="edge28" class="edge">
<title>38&#45;&gt;39</title>
<path fill="none" stroke="black" d="M1069.5,-901.93C1069.5,-870.97 1069.5,-805.3 1069.5,-768.13"/>
<polygon fill="black" stroke="black" points="1073,-768.02 1069.5,-758.02 1066,-768.02 1073,-768.02"/>
</g>
<!-- 37 -->
<g id="node34" class="node">
<title>37</title>
<polygon fill="none" stroke="black" points="1076,-1118 985,-1118 985,-1082 1076,-1082 1076,-1118"/>
<text text-anchor="middle" x="1030.5" y="-1096.3" font-family="Times,serif" font-size="14.00">Expressão</text>
</g>
<!-- 37&#45;&gt;38 -->
<g id="edge29" class="edge">
<title>37&#45;&gt;38</title>
<path fill="none" stroke="black" d="M1034.24,-1081.93C1041.02,-1050.97 1055.41,-985.3 1063.56,-948.13"/>
<polygon fill="black" stroke="black" points="1067.05,-948.53 1065.77,-938.02 1060.21,-947.03 1067.05,-948.53"/>
</g>
<!-- 34 -->
<g id="node35" class="node">
<title>34</title>
<polygon fill="none" stroke="black" points="938.5,-1298 846.5,-1298 846.5,-1262 938.5,-1262 938.5,-1298"/>
<text text-anchor="middle" x="892.5" y="-1276.3" font-family="Times,serif" font-size="14.00">MULTIPLY</text>
</g>
<!-- 34&#45;&gt;35 -->
<g id="edge30" class="edge">
<title>34&#45;&gt;35</title>
<path fill="none" stroke="black" d="M891.64,-1261.93C890.07,-1230.97 886.75,-1165.3 884.87,-1128.13"/>
<polygon fill="black" stroke="black" points="888.36,-1127.83 884.36,-1118.02 881.37,-1128.18 888.36,-1127.83"/>
</g>
<!-- 34&#45;&gt;37 -->
<g id="edge31" class="edge">
<title>34&#45;&gt;37</title>
<path fill="none" stroke="black" d="M905.73,-1261.93C930.15,-1230.43 982.41,-1163.03 1010.93,-1126.24"/>
<polygon fill="black" stroke="black" points="1013.95,-1128.06 1017.31,-1118.02 1008.41,-1123.77 1013.95,-1128.06"/>
</g>
<!-- 33 -->
<g id="node36" class="node">
<title>33</title>
<polygon fill="none" stroke="black" points="938,-1479 847,-1479 847,-1443 938,-1443 938,-1479"/>
<text text-anchor="middle" x="892.5" y="-1457.3" font-family="Times,serif" font-size="14.00">Expressão</text>
</g>
<!-- 33&#45;&gt;34 -->
<g id="edge32" class="edge">
<title>33&#45;&gt;34</title>
<path fill="none" stroke="black" d="M892.5,-1442.84C892.5,-1411.7 892.5,-1345.66 892.5,-1308.28"/>
<polygon fill="black" stroke="black" points="896,-1308.11 892.5,-1298.11 889,-1308.11 896,-1308.11"/>
</g>
<!-- 32 -->
<g id="node37" class="node">
<title>32</title>
<polygon fill="none" stroke="black" points="960.5,-1661 824.5,-1661 824.5,-1625 960.5,-1625 960.5,-1661"/>
<text text-anchor="middle" x="892.5" y="-1639.3" font-family="Times,serif" font-size="14.00">Condicao Parada</text>
</g>
<!-- 32&#45;&gt;33 -->
<g id="edge33" class="edge">
<title>32&#45;&gt;33</title>
<path fill="none" stroke="black" d="M892.5,-1624.74C892.5,-1593.43 892.5,-1527.02 892.5,-1489.43"/>
<polygon fill="black" stroke="black" points="896,-1489.21 892.5,-1479.21 889,-1489.21 896,-1489.21"/>
</g>
<!-- 31 -->
<g id="node38" class="node">
<title>31</title>
<polygon fill="none" stroke="black" points="961,-1843 824,-1843 824,-1807 961,-1807 961,-1843"/>
<text text-anchor="middle" x="892.5" y="-1821.3" font-family="Times,serif" font-size="14.00">Comando Return</text>
</g>
<!-- 31&#45;&gt;32 -->
<g id="edge34" class="edge">
<title>31&#45;&gt;32</title>
<path fill="none" stroke="black" d="M892.5,-1806.74C892.5,-1775.43 892.5,-1709.02 892.5,-1671.43"/>
<polygon fill="black" stroke="black" points="896,-1671.21 892.5,-1661.21 889,-1671.21 896,-1671.21"/>
</g>
<!-- 30 -->
<g id="node39" class="node">
<title>30</title>
<polygon fill="none" stroke="black" points="931,-2024 848,-2024 848,-1988 931,-1988 931,-2024"/>
<text text-anchor="middle" x="889.5" y="-2002.3" font-family="Times,serif" font-size="14.00">Comando</text>
</g>
<!-- 30&#45;&gt;31 -->
<g id="edge35" class="edge">
<title>30&#45;&gt;31</title>
<path fill="none" stroke="black" d="M889.79,-1987.84C890.31,-1956.7 891.42,-1890.66 892.04,-1853.28"/>
<polygon fill="black" stroke="black" points="895.55,-1853.17 892.21,-1843.11 888.55,-1853.05 895.55,-1853.17"/>
</g>
<!-- 29 -->
<g id="node40" class="node">
<title>29</title>
<polygon fill="none" stroke="black" points="954,-2205 823,-2205 823,-2169 954,-2169 954,-2205"/>
<text text-anchor="middle" x="888.5" y="-2183.3" font-family="Times,serif" font-size="14.00">Lista Comandos</text>
</g>
<!-- 29&#45;&gt;30 -->
<g id="edge36" class="edge">
<title>29&#45;&gt;30</title>
<path fill="none" stroke="black" d="M888.6,-2168.84C888.77,-2137.7 889.14,-2071.66 889.35,-2034.28"/>
<polygon fill="black" stroke="black" points="892.85,-2034.13 889.4,-2024.11 885.85,-2034.09 892.85,-2034.13"/>
</g>
<!-- 17 -->
<g id="node41" class="node">
<title>17</title>
<polygon fill="none" stroke="black" points="706.5,-2386 608.5,-2386 608.5,-2350 706.5,-2350 706.5,-2386"/>
<text text-anchor="middle" x="657.5" y="-2364.3" font-family="Times,serif" font-size="14.00">Comando If</text>
</g>
<!-- 17&#45;&gt;18 -->
<g id="edge37" class="edge">
<title>17&#45;&gt;18</title>
<path fill="none" stroke="black" d="M647.14,-2349.84C628.11,-2318.3 587.48,-2250.95 565.1,-2213.85"/>
<polygon fill="black" stroke="black" points="567.99,-2211.87 559.82,-2205.11 561.99,-2215.48 567.99,-2211.87"/>
</g>
<!-- 17&#45;&gt;24 -->
<g id="edge38" class="edge">
<title>17&#45;&gt;24</title>
<path fill="none" stroke="black" d="M663.44,-2349.84C674.28,-2318.56 697.3,-2252.09 710.22,-2214.8"/>
<polygon fill="black" stroke="black" points="713.61,-2215.71 713.57,-2205.11 706.99,-2213.42 713.61,-2215.71"/>
</g>
<!-- 17&#45;&gt;29 -->
<g id="edge39" class="edge">
<title>17&#45;&gt;29</title>
<path fill="none" stroke="black" d="M679.65,-2349.84C721.3,-2317.56 811.33,-2247.8 858.42,-2211.31"/>
<polygon fill="black" stroke="black" points="860.66,-2214 866.42,-2205.11 856.37,-2208.47 860.66,-2214"/>
</g>
<!-- 16 -->
<g id="node42" class="node">
<title>16</title>
<polygon fill="none" stroke="black" points="645,-2567 562,-2567 562,-2531 645,-2531 645,-2567"/>
<text text-anchor="middle" x="603.5" y="-2545.3" font-family="Times,serif" font-size="14.00">Comando</text>
</g>
<!-- 16&#45;&gt;17 -->
<g id="edge40" class="edge">
<title>16&#45;&gt;17</title>
<path fill="none" stroke="black" d="M608.68,-2530.84C618.11,-2499.56 638.16,-2433.09 649.41,-2395.8"/>
<polygon fill="black" stroke="black" points="652.8,-2396.7 652.34,-2386.11 646.1,-2394.67 652.8,-2396.7"/>
</g>
<!-- 15 -->
<g id="node43" class="node">
<title>15</title>
<polygon fill="none" stroke="black" points="698,-2748 481,-2748 481,-2712 698,-2712 698,-2748"/>
<text text-anchor="middle" x="589.5" y="-2726.3" font-family="Times,serif" font-size="14.00">Lista Comandos Temporario</text>
</g>
<!-- 15&#45;&gt;16 -->
<g id="edge41" class="edge">
<title>15&#45;&gt;16</title>
<path fill="none" stroke="black" d="M590.84,-2711.84C593.28,-2680.7 598.44,-2614.66 601.37,-2577.28"/>
<polygon fill="black" stroke="black" points="604.87,-2577.35 602.16,-2567.11 597.89,-2576.81 604.87,-2577.35"/>
</g>
<!-- 1 -->
<g id="node44" class="node">
<title>1</title>
<polygon fill="none" stroke="black" points="562,-2928 431,-2928 431,-2892 562,-2892 562,-2928"/>
<text text-anchor="middle" x="496.5" y="-2906.3" font-family="Times,serif" font-size="14.00">Lista Comandos</text>
</g>
<!-- 1&#45;&gt;2 -->
<g id="edge42" class="edge">
<title>1&#45;&gt;2</title>
<path fill="none" stroke="black" d="M484.99,-2891.93C463.85,-2860.57 418.7,-2793.6 393.83,-2756.71"/>
<polygon fill="black" stroke="black" points="396.46,-2754.35 387.97,-2748.02 390.66,-2758.26 396.46,-2754.35"/>
</g>
<!-- 1&#45;&gt;15 -->
<g id="edge43" class="edge">
<title>1&#45;&gt;15</title>
<path fill="none" stroke="black" d="M505.42,-2891.93C521.74,-2860.7 556.5,-2794.17 575.82,-2757.18"/>
<polygon fill="black" stroke="black" points="579.08,-2758.5 580.61,-2748.02 572.88,-2755.26 579.08,-2758.5"/>
</g>
<!-- 0 -->
<g id="node45" class="node">
<title>0</title>
<polygon fill="none" stroke="black" points="554.5,-3110 438.5,-3110 438.5,-3072 554.5,-3072 554.5,-3110"/>
<text text-anchor="middle" x="496.5" y="-3094.8" font-family="Times,serif" font-size="14.00">Corpo Funcao</text>
<text text-anchor="middle" x="496.5" y="-3079.8" font-family="Times,serif" font-size="14.00">fatorial</text>
</g>
<!-- 0&#45;&gt;1 -->
<g id="edge44" class="edge">
<title>0&#45;&gt;1</title>
<path fill="none" stroke="black" d="M496.5,-3071.85C496.5,-3040.3 496.5,-2975.19 496.5,-2938.21"/>
<polygon fill="black" stroke="black" points="500,-2938.14 496.5,-2928.14 493,-2938.14 500,-2938.14"/>
</g>
<!-- 48 -->
<g id="node46" class="node">
<title>48</title>
<polygon fill="none" stroke="black" points="1041,-2568 826,-2568 826,-2530 1041,-2530 1041,-2568"/>
<text text-anchor="middle" x="933.5" y="-2552.8" font-family="Times,serif" font-size="14.00">Comando Printf </text>
<text text-anchor="middle" x="933.5" y="-2537.8" font-family="Times,serif" font-size="14.00">Entre com um valor inteiro:</text>
</g>
<!-- 47 -->
<g id="node47" class="node">
<title>47</title>
<polygon fill="none" stroke="black" points="975,-2748 892,-2748 892,-2712 975,-2712 975,-2748"/>
<text text-anchor="middle" x="933.5" y="-2726.3" font-family="Times,serif" font-size="14.00">Comando</text>
</g>
<!-- 47&#45;&gt;48 -->
<g id="edge45" class="edge">
<title>47&#45;&gt;48</title>
<path fill="none" stroke="black" d="M933.5,-2711.84C933.5,-2681.02 933.5,-2616.01 933.5,-2578.44"/>
<polygon fill="black" stroke="black" points="937,-2578.17 933.5,-2568.17 930,-2578.17 937,-2578.17"/>
</g>
<!-- 52 -->
<g id="node48" class="node">
<title>52</title>
<polygon fill="none" stroke="black" points="1146.5,-2205 1092.5,-2205 1092.5,-2169 1146.5,-2169 1146.5,-2205"/>
<text text-anchor="middle" x="1119.5" y="-2183.3" font-family="Times,serif" font-size="14.00">n</text>
</g>
<!-- 51 -->
<g id="node49" class="node">
<title>51</title>
<polygon fill="none" stroke="black" points="1201.5,-2386 1037.5,-2386 1037.5,-2350 1201.5,-2350 1201.5,-2386"/>
<text text-anchor="middle" x="1119.5" y="-2364.3" font-family="Times,serif" font-size="14.00">Comando Scanf : %d</text>
</g>
<!-- 51&#45;&gt;52 -->
<g id="edge46" class="edge">
<title>51&#45;&gt;52</title>
<path fill="none" stroke="black" d="M1119.5,-2349.84C1119.5,-2318.7 1119.5,-2252.66 1119.5,-2215.28"/>
<polygon fill="black" stroke="black" points="1123,-2215.11 1119.5,-2205.11 1116,-2215.11 1123,-2215.11"/>
</g>
<!-- 50 -->
<g id="node50" class="node">
<title>50</title>
<polygon fill="none" stroke="black" points="1161,-2567 1078,-2567 1078,-2531 1161,-2531 1161,-2567"/>
<text text-anchor="middle" x="1119.5" y="-2545.3" font-family="Times,serif" font-size="14.00">Comando</text>
</g>
<!-- 50&#45;&gt;51 -->
<g id="edge47" class="edge">
<title>50&#45;&gt;51</title>
<path fill="none" stroke="black" d="M1119.5,-2530.84C1119.5,-2499.7 1119.5,-2433.66 1119.5,-2396.28"/>
<polygon fill="black" stroke="black" points="1123,-2396.11 1119.5,-2386.11 1116,-2396.11 1123,-2396.11"/>
</g>
<!-- 58 -->
<g id="node51" class="node">
<title>58</title>
<polygon fill="none" stroke="black" points="1148,-1661 1007,-1661 1007,-1625 1148,-1625 1148,-1661"/>
<text text-anchor="middle" x="1077.5" y="-1639.3" font-family="Times,serif" font-size="14.00">Acesso Variavel n</text>
</g>
<!-- 57 -->
<g id="node52" class="node">
<title>57</title>
<polygon fill="none" stroke="black" points="1123,-1843 1032,-1843 1032,-1807 1123,-1807 1123,-1843"/>
<text text-anchor="middle" x="1077.5" y="-1821.3" font-family="Times,serif" font-size="14.00">Expressão</text>
</g>
<!-- 57&#45;&gt;58 -->
<g id="edge48" class="edge">
<title>57&#45;&gt;58</title>
<path fill="none" stroke="black" d="M1077.5,-1806.74C1077.5,-1775.43 1077.5,-1709.02 1077.5,-1671.43"/>
<polygon fill="black" stroke="black" points="1081,-1671.21 1077.5,-1661.21 1074,-1671.21 1081,-1671.21"/>
</g>
<!-- 64 -->
<g id="node53" class="node">
<title>64</title>
<polygon fill="none" stroke="black" points="1345,-938 1204,-938 1204,-902 1345,-902 1345,-938"/>
<text text-anchor="middle" x="1274.5" y="-916.3" font-family="Times,serif" font-size="14.00">Acesso Variavel n</text>
</g>
<!-- 63 -->
<g id="node54" class="node">
<title>63</title>
<polygon fill="none" stroke="black" points="1320,-1118 1229,-1118 1229,-1082 1320,-1082 1320,-1118"/>
<text text-anchor="middle" x="1274.5" y="-1096.3" font-family="Times,serif" font-size="14.00">Expressão</text>
</g>
<!-- 63&#45;&gt;64 -->
<g id="edge49" class="edge">
<title>63&#45;&gt;64</title>
<path fill="none" stroke="black" d="M1274.5,-1081.93C1274.5,-1050.97 1274.5,-985.3 1274.5,-948.13"/>
<polygon fill="black" stroke="black" points="1278,-948.02 1274.5,-938.02 1271,-948.02 1278,-948.02"/>
</g>
<!-- 62 -->
<g id="node55" class="node">
<title>62</title>
<polygon fill="none" stroke="black" points="1343,-1298 1206,-1298 1206,-1262 1343,-1262 1343,-1298"/>
<text text-anchor="middle" x="1274.5" y="-1276.3" font-family="Times,serif" font-size="14.00">Loop Expressoes</text>
</g>
<!-- 62&#45;&gt;63 -->
<g id="edge50" class="edge">
<title>62&#45;&gt;63</title>
<path fill="none" stroke="black" d="M1274.5,-1261.93C1274.5,-1230.97 1274.5,-1165.3 1274.5,-1128.13"/>
<polygon fill="black" stroke="black" points="1278,-1128.02 1274.5,-1118.02 1271,-1128.02 1278,-1128.02"/>
</g>
<!-- 61 -->
<g id="node56" class="node">
<title>61</title>
<polygon fill="none" stroke="black" points="1372.5,-1479 1176.5,-1479 1176.5,-1443 1372.5,-1443 1372.5,-1479"/>
<text text-anchor="middle" x="1274.5" y="-1457.3" font-family="Times,serif" font-size="14.00">Chamada Funcao fatorial</text>
</g>
<!-- 61&#45;&gt;62 -->
<g id="edge51" class="edge">
<title>61&#45;&gt;62</title>
<path fill="none" stroke="black" d="M1274.5,-1442.84C1274.5,-1411.7 1274.5,-1345.66 1274.5,-1308.28"/>
<polygon fill="black" stroke="black" points="1278,-1308.11 1274.5,-1298.11 1271,-1308.11 1278,-1308.11"/>
</g>
<!-- 60 -->
<g id="node57" class="node">
<title>60</title>
<polygon fill="none" stroke="black" points="1320,-1661 1229,-1661 1229,-1625 1320,-1625 1320,-1661"/>
<text text-anchor="middle" x="1274.5" y="-1639.3" font-family="Times,serif" font-size="14.00">Expressão</text>
</g>
<!-- 60&#45;&gt;61 -->
<g id="edge52" class="edge">
<title>60&#45;&gt;61</title>
<path fill="none" stroke="black" d="M1274.5,-1624.74C1274.5,-1593.43 1274.5,-1527.02 1274.5,-1489.43"/>
<polygon fill="black" stroke="black" points="1278,-1489.21 1274.5,-1479.21 1271,-1489.21 1278,-1489.21"/>
</g>
<!-- 59 -->
<g id="node58" class="node">
<title>59</title>
<polygon fill="none" stroke="black" points="1389.5,-1843 1159.5,-1843 1159.5,-1807 1389.5,-1807 1389.5,-1843"/>
<text text-anchor="middle" x="1274.5" y="-1821.3" font-family="Times,serif" font-size="14.00">Expressoes Printf Temporario</text>
</g>
<!-- 59&#45;&gt;60 -->
<g id="edge53" class="edge">
<title>59&#45;&gt;60</title>
<path fill="none" stroke="black" d="M1274.5,-1806.74C1274.5,-1775.43 1274.5,-1709.02 1274.5,-1671.43"/>
<polygon fill="black" stroke="black" points="1278,-1671.21 1274.5,-1661.21 1271,-1671.21 1278,-1671.21"/>
</g>
<!-- 56 -->
<g id="node59" class="node">
<title>56</title>
<polygon fill="none" stroke="black" points="1346.5,-2024 1202.5,-2024 1202.5,-1988 1346.5,-1988 1346.5,-2024"/>
<text text-anchor="middle" x="1274.5" y="-2002.3" font-family="Times,serif" font-size="14.00">Expressoes Printf</text>
</g>
<!-- 56&#45;&gt;57 -->
<g id="edge54" class="edge">
<title>56&#45;&gt;57</title>
<path fill="none" stroke="black" d="M1255.61,-1987.84C1220.31,-1955.76 1144.26,-1886.66 1103.9,-1849.99"/>
<polygon fill="black" stroke="black" points="1106.09,-1847.25 1096.33,-1843.11 1101.38,-1852.43 1106.09,-1847.25"/>
</g>
<!-- 56&#45;&gt;59 -->
<g id="edge55" class="edge">
<title>56&#45;&gt;59</title>
<path fill="none" stroke="black" d="M1274.5,-1987.84C1274.5,-1956.7 1274.5,-1890.66 1274.5,-1853.28"/>
<polygon fill="black" stroke="black" points="1278,-1853.11 1274.5,-1843.11 1271,-1853.11 1278,-1853.11"/>
</g>
<!-- 55 -->
<g id="node60" class="node">
<title>55</title>
<polygon fill="none" stroke="black" points="1383.5,-2206 1197.5,-2206 1197.5,-2168 1383.5,-2168 1383.5,-2206"/>
<text text-anchor="middle" x="1290.5" y="-2190.8" font-family="Times,serif" font-size="14.00">Comando Printf </text>
<text text-anchor="middle" x="1290.5" y="-2175.8" font-family="Times,serif" font-size="14.00">O fatorial de %d eh: %d</text>
</g>
<!-- 55&#45;&gt;56 -->
<g id="edge56" class="edge">
<title>55&#45;&gt;56</title>
<path fill="none" stroke="black" d="M1288.88,-2167.85C1286.06,-2136.3 1280.24,-2071.19 1276.93,-2034.21"/>
<polygon fill="black" stroke="black" points="1280.41,-2033.79 1276.03,-2024.14 1273.44,-2034.41 1280.41,-2033.79"/>
</g>
<!-- 54 -->
<g id="node61" class="node">
<title>54</title>
<polygon fill="none" stroke="black" points="1334,-2386 1251,-2386 1251,-2350 1334,-2350 1334,-2386"/>
<text text-anchor="middle" x="1292.5" y="-2364.3" font-family="Times,serif" font-size="14.00">Comando</text>
</g>
<!-- 54&#45;&gt;55 -->
<g id="edge57" class="edge">
<title>54&#45;&gt;55</title>
<path fill="none" stroke="black" d="M1292.31,-2349.84C1291.96,-2319.02 1291.24,-2254.01 1290.82,-2216.44"/>
<polygon fill="black" stroke="black" points="1294.31,-2216.13 1290.7,-2206.17 1287.32,-2216.21 1294.31,-2216.13"/>
</g>
<!-- 69 -->
<g id="node62" class="node">
<title>69</title>
<polygon fill="none" stroke="black" points="1539,-1662 1448,-1662 1448,-1624 1539,-1624 1539,-1662"/>
<text text-anchor="middle" x="1493.5" y="-1646.8" font-family="Times,serif" font-size="14.00">Expressão</text>
<text text-anchor="middle" x="1493.5" y="-1631.8" font-family="Times,serif" font-size="14.00">0</text>
</g>
<!-- 68 -->
<g id="node63" class="node">
<title>68</title>
<polygon fill="none" stroke="black" points="1561.5,-1843 1425.5,-1843 1425.5,-1807 1561.5,-1807 1561.5,-1843"/>
<text text-anchor="middle" x="1493.5" y="-1821.3" font-family="Times,serif" font-size="14.00">Condicao Parada</text>
</g>
<!-- 68&#45;&gt;69 -->
<g id="edge58" class="edge">
<title>68&#45;&gt;69</title>
<path fill="none" stroke="black" d="M1493.5,-1806.74C1493.5,-1775.67 1493.5,-1710.04 1493.5,-1672.3"/>
<polygon fill="black" stroke="black" points="1497,-1672.01 1493.5,-1662.01 1490,-1672.01 1497,-1672.01"/>
</g>
<!-- 67 -->
<g id="node64" class="node">
<title>67</title>
<polygon fill="none" stroke="black" points="1560,-2024 1423,-2024 1423,-1988 1560,-1988 1560,-2024"/>
<text text-anchor="middle" x="1491.5" y="-2002.3" font-family="Times,serif" font-size="14.00">Comando Return</text>
</g>
<!-- 67&#45;&gt;68 -->
<g id="edge59" class="edge">
<title>67&#45;&gt;68</title>
<path fill="none" stroke="black" d="M1491.69,-1987.84C1492.04,-1956.7 1492.78,-1890.66 1493.2,-1853.28"/>
<polygon fill="black" stroke="black" points="1496.7,-1853.15 1493.31,-1843.11 1489.7,-1853.07 1496.7,-1853.15"/>
</g>
<!-- 66 -->
<g id="node65" class="node">
<title>66</title>
<polygon fill="none" stroke="black" points="1532,-2205 1449,-2205 1449,-2169 1532,-2169 1532,-2205"/>
<text text-anchor="middle" x="1490.5" y="-2183.3" font-family="Times,serif" font-size="14.00">Comando</text>
</g>
<!-- 66&#45;&gt;67 -->
<g id="edge60" class="edge">
<title>66&#45;&gt;67</title>
<path fill="none" stroke="black" d="M1490.6,-2168.84C1490.77,-2137.7 1491.14,-2071.66 1491.35,-2034.28"/>
<polygon fill="black" stroke="black" points="1494.85,-2034.13 1491.4,-2024.11 1487.85,-2034.09 1494.85,-2034.13"/>
</g>
<!-- 65 -->
<g id="node66" class="node">
<title>65</title>
<polygon fill="none" stroke="black" points="1591,-2386 1374,-2386 1374,-2350 1591,-2350 1591,-2386"/>
<text text-anchor="middle" x="1482.5" y="-2364.3" font-family="Times,serif" font-size="14.00">Lista Comandos Temporario</text>
</g>
<!-- 65&#45;&gt;66 -->
<g id="edge61" class="edge">
<title>65&#45;&gt;66</title>
<path fill="none" stroke="black" d="M1483.27,-2349.84C1484.66,-2318.7 1487.61,-2252.66 1489.28,-2215.28"/>
<polygon fill="black" stroke="black" points="1492.79,-2215.26 1489.74,-2205.11 1485.79,-2214.95 1492.79,-2215.26"/>
</g>
<!-- 53 -->
<g id="node67" class="node">
<title>53</title>
<polygon fill="none" stroke="black" points="1414,-2567 1197,-2567 1197,-2531 1414,-2531 1414,-2567"/>
<text text-anchor="middle" x="1305.5" y="-2545.3" font-family="Times,serif" font-size="14.00">Lista Comandos Temporario</text>
</g>
<!-- 53&#45;&gt;54 -->
<g id="edge62" class="edge">
<title>53&#45;&gt;54</title>
<path fill="none" stroke="black" d="M1304.25,-2530.84C1301.99,-2499.7 1297.2,-2433.66 1294.48,-2396.28"/>
<polygon fill="black" stroke="black" points="1297.96,-2395.83 1293.74,-2386.11 1290.98,-2396.34 1297.96,-2395.83"/>
</g>
<!-- 53&#45;&gt;65 -->
<g id="edge63" class="edge">
<title>53&#45;&gt;65</title>
<path fill="none" stroke="black" d="M1322.47,-2530.84C1354.06,-2498.89 1421.95,-2430.24 1458.32,-2393.45"/>
<polygon fill="black" stroke="black" points="1461.04,-2395.68 1465.58,-2386.11 1456.06,-2390.76 1461.04,-2395.68"/>
</g>
<!-- 49 -->
<g id="node68" class="node">
<title>49</title>
<polygon fill="none" stroke="black" points="1228,-2748 1011,-2748 1011,-2712 1228,-2712 1228,-2748"/>
<text text-anchor="middle" x="1119.5" y="-2726.3" font-family="Times,serif" font-size="14.00">Lista Comandos Temporario</text>
</g>
<!-- 49&#45;&gt;50 -->
<g id="edge64" class="edge">
<title>49&#45;&gt;50</title>
<path fill="none" stroke="black" d="M1119.5,-2711.84C1119.5,-2680.7 1119.5,-2614.66 1119.5,-2577.28"/>
<polygon fill="black" stroke="black" points="1123,-2577.11 1119.5,-2567.11 1116,-2577.11 1123,-2577.11"/>
</g>
<!-- 49&#45;&gt;53 -->
<g id="edge65" class="edge">
<title>49&#45;&gt;53</title>
<path fill="none" stroke="black" d="M1137.33,-2711.84C1170.53,-2679.89 1241.87,-2611.24 1280.09,-2574.45"/>
<polygon fill="black" stroke="black" points="1282.94,-2576.57 1287.72,-2567.11 1278.09,-2571.52 1282.94,-2576.57"/>
</g>
<!-- 46 -->
<g id="node69" class="node">
<title>46</title>
<polygon fill="none" stroke="black" points="1092,-2928 961,-2928 961,-2892 1092,-2892 1092,-2928"/>
<text text-anchor="middle" x="1026.5" y="-2906.3" font-family="Times,serif" font-size="14.00">Lista Comandos</text>
</g>
<!-- 46&#45;&gt;47 -->
<g id="edge66" class="edge">
<title>46&#45;&gt;47</title>
<path fill="none" stroke="black" d="M1017.58,-2891.93C1001.26,-2860.7 966.5,-2794.17 947.18,-2757.18"/>
<polygon fill="black" stroke="black" points="950.12,-2755.26 942.39,-2748.02 943.92,-2758.5 950.12,-2755.26"/>
</g>
<!-- 46&#45;&gt;49 -->
<g id="edge67" class="edge">
<title>46&#45;&gt;49</title>
<path fill="none" stroke="black" d="M1035.42,-2891.93C1051.74,-2860.7 1086.5,-2794.17 1105.82,-2757.18"/>
<polygon fill="black" stroke="black" points="1109.08,-2758.5 1110.61,-2748.02 1102.88,-2755.26 1109.08,-2758.5"/>
</g>
<!-- 45 -->
<g id="node70" class="node">
<title>45</title>
<polygon fill="none" stroke="black" points="1084.5,-3110 968.5,-3110 968.5,-3072 1084.5,-3072 1084.5,-3110"/>
<text text-anchor="middle" x="1026.5" y="-3094.8" font-family="Times,serif" font-size="14.00">Corpo Funcao</text>
<text text-anchor="middle" x="1026.5" y="-3079.8" font-family="Times,serif" font-size="14.00">main</text>
</g>
<!-- 45&#45;&gt;46 -->
<g id="edge68" class="edge">
<title>45&#45;&gt;46</title>
<path fill="none" stroke="black" d="M1026.5,-3071.85C1026.5,-3040.3 1026.5,-2975.19 1026.5,-2938.21"/>
<polygon fill="black" stroke="black" points="1030,-2938.14 1026.5,-2928.14 1023,-2938.14 1030,-2938.14"/>
</g>
</g>
</svg>
